<?xml version="1.0" encoding="utf-8" ?>
<svg xmlns="http://www.w3.org/2000/svg" xmlns:xlink="http://www.w3.org/1999/xlink" width="180" height="90">
	<path fill="#202124" transform="scale(0.175781 0.175781)" d="M0 0L0 512L1024 512L1024 0L0 0Z"/>
	<path fill="#E8EAED" transform="scale(0.175781 0.175781)" d="M785.907 379.852L576.477 379.866L576.64 112.641L787.665 379.287L785.907 379.852Z"/>
	<path fill="#E8EAED" transform="scale(0.175781 0.175781)" d="M238.32 379.937L136.423 379.613C137.629 378.33 137.943 377.011 138.958 375.667L312.453 153.727C318.983 145.266 325.378 136.107 332.676 128.323L433.755 262.892L341.914 379.027C340.218 380.751 338.177 379.941 335.953 379.941L238.32 379.937Z"/>
	<path fill="#E8EAED" transform="scale(0.175781 0.175781)" d="M376.888 379.942L375.187 379.481C379.235 373.604 384.064 368.228 388.519 362.66L540.249 164.353C542.631 161.241 544.944 157.723 547.772 155.005C548.191 155.423 548.232 155.969 548.23 156.496L548.086 379.918L376.888 379.942Z"/>
	<path fill="#E8EAED" transform="scale(0.175781 0.175781)" d="M887.405 379.338L836.255 379.918C834.643 379.923 825.18 380.413 824.258 379.957C822.239 378.958 752.957 294.62 746.289 286.508L733.735 271.314C731.564 268.658 729.208 265.033 726.578 262.923L725.714 262.17C723.582 259.947 724.825 253.022 724.826 250.149L724.846 159.186L887.405 379.338Z"/>
</svg>
