<?xml version="1.0" encoding="utf-8" ?>
<svg xmlns="http://www.w3.org/2000/svg" xmlns:xlink="http://www.w3.org/1999/xlink" width="180" height="90">
	<path fill="#E8EAED" transform="scale(0.175781 0.175781)" d="M342.13 337.604L357.925 337.565L357.922 354.149L342.215 354.071L342.13 337.604Z"/>
	<path fill="#E8EAED" transform="scale(0.175781 0.175781)" d="M342.162 367.477L357.658 367.437C358.698 369.385 357.988 382.942 357.994 385.938L357.985 454.477L342.137 454.393L342.162 367.477Z"/>
	<path fill="#E8EAED" transform="scale(0.175781 0.175781)" d="M326.049 366.614L330.803 366.364L330.789 383.949C327.746 382.521 322.328 381.433 319.064 382.383C316.402 383.157 314.45 384.089 312.469 386.057C311.561 386.958 309.483 389.327 309.086 390.524C308.819 391.331 309.07 393.457 309.066 394.392L309.035 404.233L308.982 454.483L297.401 454.461C296.114 454.458 294.234 454.762 293.153 454L293.078 451.125L293.044 367.413L308.957 367.38C308.957 371.097 308.381 375.894 309.169 379.469L311.266 376.213C314.892 370.943 319.785 367.797 326.049 366.614Z"/>
	<path fill="#E8EAED" transform="scale(0.175781 0.175781)" d="M421.441 367.484L462.391 367.433C462.407 370.148 462.773 373.615 462.144 376.233C460.644 382.477 456.898 389.379 454.486 395.359L435.338 442.5L453.338 442.401C455.962 442.389 459.297 441.988 461.835 442.583L461.724 454.477L418.546 454.465C418.518 451.121 418.013 446.839 418.658 443.601C419.068 441.542 420.418 439.294 421.25 437.357L426.154 425.499L445.342 379.106L421.451 379.136L421.441 367.484Z"/>
	<path fill="#E8EAED" transform="scale(0.175781 0.175781)" d="M379.903 341.785L395.609 341.924L395.699 367.339L409.837 367.465L409.742 377.971L395.898 377.96L395.888 435.003C395.983 437.884 396.244 439.83 398.485 441.842C400.982 444.086 406.476 443.147 409.685 443.038L409.694 451.125C409.699 452.442 409.798 453.679 409.25 454.906L397.295 455.337C392.819 455.336 387.911 453.758 384.75 450.46C382.533 448.147 381.123 445.015 380.51 441.9C379.02 434.325 379.718 425.646 379.723 417.917L379.845 377.914L370.654 377.883L370.694 367.388L379.924 367.367L379.903 341.785Z"/>
	<path fill="#E8EAED" transform="scale(0.175781 0.175781)" d="M600.193 366.179L602.474 366.104C608.995 365.983 616.573 366.874 621.417 371.662C628.081 378.251 627.444 389.844 627.492 398.503L613.064 398.466C613.077 393.181 613.79 384.924 610.578 380.373C609.519 378.873 607.693 378.399 605.969 378.093C603.364 377.633 600.037 377.863 597.84 379.504C595.699 381.102 595.062 384.189 594.701 386.692C593.701 393.628 594.223 401.127 594.222 408.133L594.423 430.328C594.558 433.635 594.767 438.071 596.885 440.782C598.336 442.641 600.63 443.529 602.92 443.743C605.401 443.975 608.134 443.697 610.037 441.924C613.465 438.728 612.961 432.571 613.069 428.299L613.025 421.538L627.519 421.55C627.557 430.063 627.906 440.63 622.663 447.875C619.944 451.631 615.852 453.926 611.311 454.66C603.874 455.863 594.197 455.854 587.869 451.25C581.538 446.643 580.153 439.487 579.064 432.21C578.076 425.605 578.419 418.662 578.429 411.994C578.446 400.892 576.866 383.696 583.939 374.365C588.351 368.544 593.365 367.178 600.193 366.179Z"/>
	<path fill="#E8EAED" transform="scale(0.175781 0.175781)" d="M797.025 366.22L797.811 366.207C805.059 366.247 811.744 366.771 817.109 372.21C823.469 378.658 822.752 390.114 822.694 398.465L808.475 398.407C808.457 393.346 809.113 384.825 806.075 380.513C804.974 378.95 803.076 378.278 801.25 377.997C798.815 377.622 795.707 377.832 793.705 379.424C791.134 381.468 790.53 384.621 790.145 387.699C789.167 395.531 789.596 403.8 789.594 411.685C789.591 419.07 789.202 426.807 790.112 434.141C790.425 436.662 790.774 439.047 792.429 441.079C793.718 442.663 795.691 443.456 797.696 443.584C800.365 443.756 803.536 443.657 805.6 441.688C808.983 438.46 808.311 430.704 808.435 426.433C808.396 425.101 808.014 422.573 808.75 421.494L822.931 421.502C823.023 429.931 823.167 441.122 817.849 448.108C815.067 451.764 810.592 454.13 806.083 454.77C798.98 455.778 789.032 455.929 783.055 451.258C776.087 445.813 775.112 437.859 774.214 429.642C773.511 423.198 773.771 416.529 773.789 410.048C773.82 398.688 772.349 382.643 780.006 373.312C784.721 367.566 790.119 366.901 797.025 366.22Z"/>
	<path fill="#E8EAED" transform="scale(0.175781 0.175781)" d="M708.525 367.479L724.36 367.412L724.397 413.393C724.408 418.926 723.133 435.934 725.659 440.26C726.456 441.625 727.596 442.461 729.134 442.828C734.216 444.039 738.907 440.229 742.993 437.745L742.93 367.41L758.594 367.409L758.551 388.25L758.619 454.46L742.941 454.411L742.974 445.625C737.443 450.528 730.496 455.151 722.892 455.35C719.691 455.434 716.236 455.38 713.806 452.982C711.017 450.23 709.639 446.772 708.982 442.981C707.645 435.261 708.525 426.132 708.517 418.225L708.525 367.479Z"/>
	<path fill="#E8EAED" transform="scale(0.175781 0.175781)" d="M837.705 332.384L853.507 332.334L853.504 405.278L877.213 367.321L893.269 367.462C893.193 369.428 889.986 373.552 888.855 375.432L873.204 401.39L889.988 445.85L893.118 454.435L877.381 454.383L861.047 409.259L855.356 418.161C854.924 418.831 853.67 420.338 853.502 421.031C853.062 422.847 853.505 425.82 853.506 427.793L853.5 447.801C853.499 449.527 853.908 452.527 853.227 454.089L837.697 454.061L837.705 332.384Z"/>
	<path fill="#E8EAED" transform="scale(0.175781 0.175781)" d="M642.51 332.476L658.327 332.421L658.143 376.144C664.604 370.65 670.979 366.359 679.801 366.114C682.838 366.03 686.132 366.937 688.319 369.119C690.646 371.44 692.109 374.678 692.669 377.89C694.194 386.63 693.168 396.977 693.163 405.88L693.169 454.473L677.399 454.394L677.276 404.746L677.316 389.55C677.297 386.919 677.321 383.211 675.789 380.988C674.732 379.454 673.186 379.035 671.446 378.715C666.996 377.897 661.817 381.7 658.329 384.14L658.371 454.438L642.507 454.406L642.51 332.476Z"/>
	<path fill="#E8EAED" transform="scale(0.175781 0.175781)" d="M530.602 331.637C539.09 330.926 547.189 331.593 554.234 336.724C562.753 342.928 564.515 352.807 566.046 362.534C565.166 363.252 563.386 363.455 562.289 363.736L551.607 366.495L551.605 365.795C551.475 359.692 549.777 351.679 545.153 347.42C542.179 344.681 538.079 343.948 534.152 344.145C530.438 344.333 527.082 345.637 524.628 348.514C522.581 350.915 521.839 354.261 521.789 357.343C521.722 361.366 522.573 365.241 524.711 368.677C527.339 372.898 531.711 376.085 535.424 379.304C549.45 391.462 566.415 403.841 567.835 423.935C568.417 432.172 566.744 439.795 561.197 446.127C555.534 452.591 548.362 455.012 539.979 455.579C532.081 455.466 525.743 454.68 519.319 449.671C509.972 442.383 507.85 431.439 506.443 420.38L521.365 416.065L521.813 420.533C522.733 427.553 524.521 435.882 530.609 440.368C533.364 442.399 539.102 442.798 542.389 442.219C545.471 441.677 547.831 440.186 549.613 437.622C551.837 434.424 552.526 430.334 552.263 426.504C551.566 416.388 545.375 410.008 538.152 403.617C526.86 393.625 510.118 383.225 507.462 367.39C506.023 358.809 506.605 348.866 511.901 341.635C516.433 335.446 523.301 332.827 530.602 331.637Z"/>
	<path fill="#E8EAED" transform="scale(0.175781 0.175781)" d="M249.265 366.186C256.003 365.95 262.428 366.458 268.023 370.635C273.741 374.904 275.941 381.593 276.924 388.371C277.94 395.372 277.622 402.703 277.651 409.773C277.686 418.39 278.244 427.498 276.491 435.968C275.649 440.033 274.091 444.193 271.545 447.506C267.532 452.729 262.286 454.556 255.951 455.386C248.893 455.471 242.683 455.596 236.741 451.131C231.091 446.885 228.519 439.711 227.596 432.928C226.662 426.063 226.976 418.935 226.975 412.024C226.972 400.542 225.295 384.207 232.75 374.465C237.085 368.801 242.498 367.125 249.265 366.186ZM250.037 378.065C247.196 379.013 246.023 379.721 244.703 382.438C242.023 387.95 242.069 431.609 244.154 437.742C244.835 439.743 246.241 442.157 248.236 443.076C250.22 443.99 253.218 443.732 255.359 443.622C257.825 442.627 259.066 441.661 260.105 439.16C261.628 435.494 261.656 431.127 261.757 427.212L261.825 409.011L261.633 392.328C261.496 389.11 261.469 385.664 260.191 382.654C259.52 381.071 258.395 379.426 256.74 378.773C254.685 377.964 252.21 377.881 250.037 378.065Z"/>
	<path fill="#E8EAED" transform="scale(0.175781 0.175781)" d="M639.626 136.885C642.817 140.403 645.599 144.878 648.437 148.714L667.809 174.957L736.962 268.48L699 268.729L652.841 213.045L643.155 201.369C642.318 200.369 640.178 198.416 639.73 197.29C639.513 196.742 639.664 195.236 639.661 194.592L639.834 185.473L639.626 136.885Z"/>
	<path fill="#E8EAED" transform="scale(0.175781 0.175781)" d="M132.295 332.245L148.906 332.41L170.833 431.537L192.417 332.719C197.08 331.698 203.729 332.46 208.6 332.468L211.002 454.505L197.55 454.42L196.516 388.288L195.911 364.674L175.285 454.4C172.303 454.41 168.63 454.804 165.742 454.187L144.987 364.455L143.905 454.273C142.579 454.73 140.75 454.485 139.352 454.48L130.231 454.428L132.295 332.245Z"/>
	<path fill="#E8EAED" transform="scale(0.175781 0.175781)" d="M533.585 133.942L533.532 268.62L430.342 268.55L533.585 133.942Z"/>
	<path fill="#E8EAED" transform="scale(0.175781 0.175781)" d="M550.921 108.877L677.229 268.676L550.81 268.581L550.921 108.877Z"/>
	<path fill="#E8EAED" transform="scale(0.175781 0.175781)" d="M404.511 118.148L465.109 198.532L409.401 268.616L348.509 268.534L287.094 268.448C291.931 260.538 298.938 252.941 304.721 245.624L335.168 206.736L380.993 148.137L404.511 118.148Z"/>
</svg>
